<mxfile host="app.diagrams.net" agent="Mozilla/5.0 (X11; Linux x86_64; rv:128.0) Gecko/20100101 Firefox/128.0" version="28.1.0">
  <diagram name="Page-1" id="CjF7MEfJegdhO5vil88x">
    <mxGraphModel dx="872" dy="462" grid="0" gridSize="10" guides="1" tooltips="1" connect="1" arrows="1" fold="1" page="1" pageScale="1" pageWidth="850" pageHeight="1100" background="none" math="0" shadow="0">
      <root>
        <mxCell id="0" />
        <mxCell id="1" parent="0" />
        <mxCell id="YHTke7TpmmjH3oKSRdbo-4" value="&lt;h2&gt;&lt;b&gt;Factores socioeconómicos&lt;/b&gt;&lt;/h2&gt;&lt;div align=&quot;left&quot;&gt;• Quintiles de ingreso&lt;br&gt;• Cobertura de salud&lt;br&gt;• Educación del jefe/a de hogar&lt;br&gt;• Región&lt;br&gt;• Sexo / Edad&lt;br&gt;&lt;/div&gt;&lt;div&gt;&lt;br&gt;&lt;/div&gt;" style="rounded=1;whiteSpace=wrap;html=1;strokeColor=#006EAF;fontColor=#ffffff;fillColor=#1ba1e2;spacingLeft=12;" vertex="1" parent="1">
          <mxGeometry x="90" y="70" width="210" height="160" as="geometry" />
        </mxCell>
        <mxCell id="YHTke7TpmmjH3oKSRdbo-5" value="&lt;h2&gt;&lt;b&gt;Consumo de ultraprocesados&lt;/b&gt;&lt;br&gt;&lt;/h2&gt;&lt;div&gt;&lt;div align=&quot;left&quot;&gt;• Frecuencia&lt;br&gt;&lt;/div&gt;&lt;div align=&quot;left&quot;&gt;• Cantidad&lt;br&gt;&lt;/div&gt;&lt;div align=&quot;left&quot;&gt;• % de la dieta&lt;br&gt;&lt;/div&gt;&lt;/div&gt;&lt;div&gt;&lt;br&gt;&lt;/div&gt;" style="rounded=1;whiteSpace=wrap;html=1;strokeColor=#C73500;fontColor=#000000;fillColor=#fa6800;spacingLeft=12;" vertex="1" parent="1">
          <mxGeometry x="470" y="85" width="210" height="130" as="geometry" />
        </mxCell>
        <mxCell id="YHTke7TpmmjH3oKSRdbo-6" value="" style="shape=flexArrow;endArrow=classic;html=1;rounded=0;strokeColor=#3A5431;fillColor=#6d8764;" edge="1" parent="1" source="YHTke7TpmmjH3oKSRdbo-4" target="YHTke7TpmmjH3oKSRdbo-5">
          <mxGeometry width="50" height="50" relative="1" as="geometry">
            <mxPoint x="300" y="200" as="sourcePoint" />
            <mxPoint x="370.71067811865476" y="150" as="targetPoint" />
          </mxGeometry>
        </mxCell>
        <mxCell id="YHTke7TpmmjH3oKSRdbo-7" value="&lt;h2&gt;&lt;b&gt;Consumo de ultraprocesados&lt;/b&gt;&lt;br&gt;&lt;/h2&gt;&lt;div&gt;&lt;div align=&quot;left&quot;&gt;• Frecuencia&lt;br&gt;&lt;/div&gt;&lt;div align=&quot;left&quot;&gt;• Cantidad&lt;br&gt;&lt;/div&gt;&lt;div align=&quot;left&quot;&gt;• % de la dieta&lt;br&gt;&lt;/div&gt;&lt;/div&gt;&lt;div&gt;&lt;br&gt;&lt;/div&gt;" style="rounded=1;whiteSpace=wrap;html=1;strokeColor=#C73500;fontColor=#000000;fillColor=#fa6800;spacingLeft=12;" vertex="1" parent="1">
          <mxGeometry x="90" y="326" width="210" height="130" as="geometry" />
        </mxCell>
        <mxCell id="YHTke7TpmmjH3oKSRdbo-8" value="&lt;h2&gt;&lt;b&gt;Indicadores de Salud&lt;br&gt;&lt;/b&gt;&lt;/h2&gt;&lt;div align=&quot;left&quot;&gt;• IMC (índice de masa corporal)&lt;br&gt;• Sobrepeso&lt;br&gt;• Obesidad&lt;br&gt;&lt;br&gt;&lt;/div&gt;&lt;div&gt;&lt;br&gt;&lt;/div&gt;" style="rounded=1;whiteSpace=wrap;html=1;strokeColor=#006EAF;fontColor=#ffffff;fillColor=#1ba1e2;spacingLeft=12;" vertex="1" parent="1">
          <mxGeometry x="478" y="311" width="210" height="160" as="geometry" />
        </mxCell>
        <mxCell id="YHTke7TpmmjH3oKSRdbo-9" value="" style="shape=flexArrow;endArrow=classic;html=1;rounded=0;strokeColor=#3A5431;entryX=0;entryY=0.5;entryDx=0;entryDy=0;fillColor=#6d8764;" edge="1" parent="1" source="YHTke7TpmmjH3oKSRdbo-7" target="YHTke7TpmmjH3oKSRdbo-8">
          <mxGeometry width="50" height="50" relative="1" as="geometry">
            <mxPoint x="300" y="441" as="sourcePoint" />
            <mxPoint x="370.71067811865476" y="391" as="targetPoint" />
          </mxGeometry>
        </mxCell>
      </root>
    </mxGraphModel>
  </diagram>
</mxfile>
